<svg width="39" height="39" viewBox="0 0 39 39" fill="none" xmlns="http://www.w3.org/2000/svg">
<path d="M2 19.5C2 21.7981 2.45265 24.0738 3.33211 26.197C4.21157 28.3202 5.50061 30.2493 7.12563 31.8744C8.75066 33.4994 10.6798 34.7884 12.803 35.6679C14.9262 36.5474 17.2019 37 19.5 37C21.7981 37 24.0738 36.5474 26.197 35.6679C28.3202 34.7884 30.2493 33.4994 31.8744 31.8744C33.4994 30.2493 34.7884 28.3202 35.6679 26.197C36.5474 24.0738 37 21.7981 37 19.5C37 17.2019 36.5474 14.9262 35.6679 12.803C34.7884 10.6798 33.4994 8.75066 31.8744 7.12563C30.2493 5.50061 28.3202 4.21157 26.197 3.33211C24.0738 2.45265 21.7981 2 19.5 2C17.2019 2 14.9262 2.45265 12.803 3.33211C10.6798 4.21157 8.75066 5.50061 7.12563 7.12563C5.50061 8.75066 4.21157 10.6798 3.33211 12.803C2.45265 14.9262 2 17.2019 2 19.5Z" stroke="black" stroke-width="3" stroke-linecap="round" stroke-linejoin="round"/>
<path d="M13.6667 19.4998C13.6667 21.0469 14.2812 22.5306 15.3752 23.6246C16.4692 24.7185 17.9529 25.3331 19.5 25.3331C21.0471 25.3331 22.5308 24.7185 23.6248 23.6246C24.7188 22.5306 25.3333 21.0469 25.3333 19.4998M13.6667 19.4998C13.6667 17.9527 14.2812 16.4689 15.3752 15.375C16.4692 14.281 17.9529 13.6664 19.5 13.6664C21.0471 13.6664 22.5308 14.281 23.6248 15.375C24.7188 16.4689 25.3333 17.9527 25.3333 19.4998M13.6667 19.4998H2M25.3333 19.4998H37" stroke="black" stroke-width="3" stroke-linecap="round" stroke-linejoin="round"/>
</svg>
